%TF.GenerationSoftware,KiCad,Pcbnew,7.0.11+dfsg-1build4*%
%TF.CreationDate,2026-04-15T15:53:22+03:00*%
%TF.ProjectId,schematics,73636865-6d61-4746-9963-732e6b696361,rev?*%
%TF.SameCoordinates,Original*%
%TF.FileFunction,Legend,Top*%
%TF.FilePolarity,Positive*%
%FSLAX46Y46*%
G04 Gerber Fmt 4.6, Leading zero omitted, Abs format (unit mm)*
G04 Created by KiCad (PCBNEW 7.0.11+dfsg-1build4) date 2026-04-15 15:53:22*
%MOMM*%
%LPD*%
G01*
G04 APERTURE LIST*
%ADD10C,0.300000*%
%ADD11C,0.150000*%
%ADD12C,0.120000*%
G04 APERTURE END LIST*
D10*
X163043082Y-114154400D02*
X163257368Y-114225828D01*
X163257368Y-114225828D02*
X163614510Y-114225828D01*
X163614510Y-114225828D02*
X163757368Y-114154400D01*
X163757368Y-114154400D02*
X163828796Y-114082971D01*
X163828796Y-114082971D02*
X163900225Y-113940114D01*
X163900225Y-113940114D02*
X163900225Y-113797257D01*
X163900225Y-113797257D02*
X163828796Y-113654400D01*
X163828796Y-113654400D02*
X163757368Y-113582971D01*
X163757368Y-113582971D02*
X163614510Y-113511542D01*
X163614510Y-113511542D02*
X163328796Y-113440114D01*
X163328796Y-113440114D02*
X163185939Y-113368685D01*
X163185939Y-113368685D02*
X163114510Y-113297257D01*
X163114510Y-113297257D02*
X163043082Y-113154400D01*
X163043082Y-113154400D02*
X163043082Y-113011542D01*
X163043082Y-113011542D02*
X163114510Y-112868685D01*
X163114510Y-112868685D02*
X163185939Y-112797257D01*
X163185939Y-112797257D02*
X163328796Y-112725828D01*
X163328796Y-112725828D02*
X163685939Y-112725828D01*
X163685939Y-112725828D02*
X163900225Y-112797257D01*
X165185939Y-114225828D02*
X165185939Y-113440114D01*
X165185939Y-113440114D02*
X165114510Y-113297257D01*
X165114510Y-113297257D02*
X164971653Y-113225828D01*
X164971653Y-113225828D02*
X164685939Y-113225828D01*
X164685939Y-113225828D02*
X164543081Y-113297257D01*
X165185939Y-114154400D02*
X165043081Y-114225828D01*
X165043081Y-114225828D02*
X164685939Y-114225828D01*
X164685939Y-114225828D02*
X164543081Y-114154400D01*
X164543081Y-114154400D02*
X164471653Y-114011542D01*
X164471653Y-114011542D02*
X164471653Y-113868685D01*
X164471653Y-113868685D02*
X164543081Y-113725828D01*
X164543081Y-113725828D02*
X164685939Y-113654400D01*
X164685939Y-113654400D02*
X165043081Y-113654400D01*
X165043081Y-113654400D02*
X165185939Y-113582971D01*
X166114510Y-114225828D02*
X165971653Y-114154400D01*
X165971653Y-114154400D02*
X165900224Y-114011542D01*
X165900224Y-114011542D02*
X165900224Y-112725828D01*
X167328796Y-114225828D02*
X167328796Y-113440114D01*
X167328796Y-113440114D02*
X167257367Y-113297257D01*
X167257367Y-113297257D02*
X167114510Y-113225828D01*
X167114510Y-113225828D02*
X166828796Y-113225828D01*
X166828796Y-113225828D02*
X166685938Y-113297257D01*
X167328796Y-114154400D02*
X167185938Y-114225828D01*
X167185938Y-114225828D02*
X166828796Y-114225828D01*
X166828796Y-114225828D02*
X166685938Y-114154400D01*
X166685938Y-114154400D02*
X166614510Y-114011542D01*
X166614510Y-114011542D02*
X166614510Y-113868685D01*
X166614510Y-113868685D02*
X166685938Y-113725828D01*
X166685938Y-113725828D02*
X166828796Y-113654400D01*
X166828796Y-113654400D02*
X167185938Y-113654400D01*
X167185938Y-113654400D02*
X167328796Y-113582971D01*
X168043081Y-114225828D02*
X168043081Y-112725828D01*
X168685939Y-114225828D02*
X168685939Y-113440114D01*
X168685939Y-113440114D02*
X168614510Y-113297257D01*
X168614510Y-113297257D02*
X168471653Y-113225828D01*
X168471653Y-113225828D02*
X168257367Y-113225828D01*
X168257367Y-113225828D02*
X168114510Y-113297257D01*
X168114510Y-113297257D02*
X168043081Y-113368685D01*
X170543081Y-114225828D02*
X170543081Y-112725828D01*
X171185939Y-114225828D02*
X171185939Y-113440114D01*
X171185939Y-113440114D02*
X171114510Y-113297257D01*
X171114510Y-113297257D02*
X170971653Y-113225828D01*
X170971653Y-113225828D02*
X170757367Y-113225828D01*
X170757367Y-113225828D02*
X170614510Y-113297257D01*
X170614510Y-113297257D02*
X170543081Y-113368685D01*
X172543082Y-113225828D02*
X172543082Y-114225828D01*
X171900224Y-113225828D02*
X171900224Y-114011542D01*
X171900224Y-114011542D02*
X171971653Y-114154400D01*
X171971653Y-114154400D02*
X172114510Y-114225828D01*
X172114510Y-114225828D02*
X172328796Y-114225828D01*
X172328796Y-114225828D02*
X172471653Y-114154400D01*
X172471653Y-114154400D02*
X172543082Y-114082971D01*
X173185939Y-114154400D02*
X173328796Y-114225828D01*
X173328796Y-114225828D02*
X173614510Y-114225828D01*
X173614510Y-114225828D02*
X173757367Y-114154400D01*
X173757367Y-114154400D02*
X173828796Y-114011542D01*
X173828796Y-114011542D02*
X173828796Y-113940114D01*
X173828796Y-113940114D02*
X173757367Y-113797257D01*
X173757367Y-113797257D02*
X173614510Y-113725828D01*
X173614510Y-113725828D02*
X173400225Y-113725828D01*
X173400225Y-113725828D02*
X173257367Y-113654400D01*
X173257367Y-113654400D02*
X173185939Y-113511542D01*
X173185939Y-113511542D02*
X173185939Y-113440114D01*
X173185939Y-113440114D02*
X173257367Y-113297257D01*
X173257367Y-113297257D02*
X173400225Y-113225828D01*
X173400225Y-113225828D02*
X173614510Y-113225828D01*
X173614510Y-113225828D02*
X173757367Y-113297257D01*
X174400225Y-114154400D02*
X174543082Y-114225828D01*
X174543082Y-114225828D02*
X174828796Y-114225828D01*
X174828796Y-114225828D02*
X174971653Y-114154400D01*
X174971653Y-114154400D02*
X175043082Y-114011542D01*
X175043082Y-114011542D02*
X175043082Y-113940114D01*
X175043082Y-113940114D02*
X174971653Y-113797257D01*
X174971653Y-113797257D02*
X174828796Y-113725828D01*
X174828796Y-113725828D02*
X174614511Y-113725828D01*
X174614511Y-113725828D02*
X174471653Y-113654400D01*
X174471653Y-113654400D02*
X174400225Y-113511542D01*
X174400225Y-113511542D02*
X174400225Y-113440114D01*
X174400225Y-113440114D02*
X174471653Y-113297257D01*
X174471653Y-113297257D02*
X174614511Y-113225828D01*
X174614511Y-113225828D02*
X174828796Y-113225828D01*
X174828796Y-113225828D02*
X174971653Y-113297257D01*
X176257368Y-114154400D02*
X176114511Y-114225828D01*
X176114511Y-114225828D02*
X175828797Y-114225828D01*
X175828797Y-114225828D02*
X175685939Y-114154400D01*
X175685939Y-114154400D02*
X175614511Y-114011542D01*
X175614511Y-114011542D02*
X175614511Y-113440114D01*
X175614511Y-113440114D02*
X175685939Y-113297257D01*
X175685939Y-113297257D02*
X175828797Y-113225828D01*
X175828797Y-113225828D02*
X176114511Y-113225828D01*
X176114511Y-113225828D02*
X176257368Y-113297257D01*
X176257368Y-113297257D02*
X176328797Y-113440114D01*
X176328797Y-113440114D02*
X176328797Y-113582971D01*
X176328797Y-113582971D02*
X175614511Y-113725828D01*
X176971653Y-114225828D02*
X176971653Y-113225828D01*
X176971653Y-112725828D02*
X176900225Y-112797257D01*
X176900225Y-112797257D02*
X176971653Y-112868685D01*
X176971653Y-112868685D02*
X177043082Y-112797257D01*
X177043082Y-112797257D02*
X176971653Y-112725828D01*
X176971653Y-112725828D02*
X176971653Y-112868685D01*
X177685939Y-113225828D02*
X177685939Y-114225828D01*
X177685939Y-113368685D02*
X177757368Y-113297257D01*
X177757368Y-113297257D02*
X177900225Y-113225828D01*
X177900225Y-113225828D02*
X178114511Y-113225828D01*
X178114511Y-113225828D02*
X178257368Y-113297257D01*
X178257368Y-113297257D02*
X178328797Y-113440114D01*
X178328797Y-113440114D02*
X178328797Y-114225828D01*
X180400225Y-114225828D02*
X180257368Y-114154400D01*
X180257368Y-114154400D02*
X180185939Y-114082971D01*
X180185939Y-114082971D02*
X180114511Y-113940114D01*
X180114511Y-113940114D02*
X180114511Y-113511542D01*
X180114511Y-113511542D02*
X180185939Y-113368685D01*
X180185939Y-113368685D02*
X180257368Y-113297257D01*
X180257368Y-113297257D02*
X180400225Y-113225828D01*
X180400225Y-113225828D02*
X180614511Y-113225828D01*
X180614511Y-113225828D02*
X180757368Y-113297257D01*
X180757368Y-113297257D02*
X180828797Y-113368685D01*
X180828797Y-113368685D02*
X180900225Y-113511542D01*
X180900225Y-113511542D02*
X180900225Y-113940114D01*
X180900225Y-113940114D02*
X180828797Y-114082971D01*
X180828797Y-114082971D02*
X180757368Y-114154400D01*
X180757368Y-114154400D02*
X180614511Y-114225828D01*
X180614511Y-114225828D02*
X180400225Y-114225828D01*
X181471654Y-114154400D02*
X181614511Y-114225828D01*
X181614511Y-114225828D02*
X181900225Y-114225828D01*
X181900225Y-114225828D02*
X182043082Y-114154400D01*
X182043082Y-114154400D02*
X182114511Y-114011542D01*
X182114511Y-114011542D02*
X182114511Y-113940114D01*
X182114511Y-113940114D02*
X182043082Y-113797257D01*
X182043082Y-113797257D02*
X181900225Y-113725828D01*
X181900225Y-113725828D02*
X181685940Y-113725828D01*
X181685940Y-113725828D02*
X181543082Y-113654400D01*
X181543082Y-113654400D02*
X181471654Y-113511542D01*
X181471654Y-113511542D02*
X181471654Y-113440114D01*
X181471654Y-113440114D02*
X181543082Y-113297257D01*
X181543082Y-113297257D02*
X181685940Y-113225828D01*
X181685940Y-113225828D02*
X181900225Y-113225828D01*
X181900225Y-113225828D02*
X182043082Y-113297257D01*
X182757368Y-114225828D02*
X182757368Y-113225828D01*
X182757368Y-113368685D02*
X182828797Y-113297257D01*
X182828797Y-113297257D02*
X182971654Y-113225828D01*
X182971654Y-113225828D02*
X183185940Y-113225828D01*
X183185940Y-113225828D02*
X183328797Y-113297257D01*
X183328797Y-113297257D02*
X183400226Y-113440114D01*
X183400226Y-113440114D02*
X183400226Y-114225828D01*
X183400226Y-113440114D02*
X183471654Y-113297257D01*
X183471654Y-113297257D02*
X183614511Y-113225828D01*
X183614511Y-113225828D02*
X183828797Y-113225828D01*
X183828797Y-113225828D02*
X183971654Y-113297257D01*
X183971654Y-113297257D02*
X184043083Y-113440114D01*
X184043083Y-113440114D02*
X184043083Y-114225828D01*
X185400226Y-114225828D02*
X185400226Y-113440114D01*
X185400226Y-113440114D02*
X185328797Y-113297257D01*
X185328797Y-113297257D02*
X185185940Y-113225828D01*
X185185940Y-113225828D02*
X184900226Y-113225828D01*
X184900226Y-113225828D02*
X184757368Y-113297257D01*
X185400226Y-114154400D02*
X185257368Y-114225828D01*
X185257368Y-114225828D02*
X184900226Y-114225828D01*
X184900226Y-114225828D02*
X184757368Y-114154400D01*
X184757368Y-114154400D02*
X184685940Y-114011542D01*
X184685940Y-114011542D02*
X184685940Y-113868685D01*
X184685940Y-113868685D02*
X184757368Y-113725828D01*
X184757368Y-113725828D02*
X184900226Y-113654400D01*
X184900226Y-113654400D02*
X185257368Y-113654400D01*
X185257368Y-113654400D02*
X185400226Y-113582971D01*
X186114511Y-113225828D02*
X186114511Y-114225828D01*
X186114511Y-113368685D02*
X186185940Y-113297257D01*
X186185940Y-113297257D02*
X186328797Y-113225828D01*
X186328797Y-113225828D02*
X186543083Y-113225828D01*
X186543083Y-113225828D02*
X186685940Y-113297257D01*
X186685940Y-113297257D02*
X186757369Y-113440114D01*
X186757369Y-113440114D02*
X186757369Y-114225828D01*
X163043082Y-115283685D02*
X163114510Y-115212257D01*
X163114510Y-115212257D02*
X163257368Y-115140828D01*
X163257368Y-115140828D02*
X163614510Y-115140828D01*
X163614510Y-115140828D02*
X163757368Y-115212257D01*
X163757368Y-115212257D02*
X163828796Y-115283685D01*
X163828796Y-115283685D02*
X163900225Y-115426542D01*
X163900225Y-115426542D02*
X163900225Y-115569400D01*
X163900225Y-115569400D02*
X163828796Y-115783685D01*
X163828796Y-115783685D02*
X162971653Y-116640828D01*
X162971653Y-116640828D02*
X163900225Y-116640828D01*
X164828796Y-115140828D02*
X164971653Y-115140828D01*
X164971653Y-115140828D02*
X165114510Y-115212257D01*
X165114510Y-115212257D02*
X165185939Y-115283685D01*
X165185939Y-115283685D02*
X165257367Y-115426542D01*
X165257367Y-115426542D02*
X165328796Y-115712257D01*
X165328796Y-115712257D02*
X165328796Y-116069400D01*
X165328796Y-116069400D02*
X165257367Y-116355114D01*
X165257367Y-116355114D02*
X165185939Y-116497971D01*
X165185939Y-116497971D02*
X165114510Y-116569400D01*
X165114510Y-116569400D02*
X164971653Y-116640828D01*
X164971653Y-116640828D02*
X164828796Y-116640828D01*
X164828796Y-116640828D02*
X164685939Y-116569400D01*
X164685939Y-116569400D02*
X164614510Y-116497971D01*
X164614510Y-116497971D02*
X164543081Y-116355114D01*
X164543081Y-116355114D02*
X164471653Y-116069400D01*
X164471653Y-116069400D02*
X164471653Y-115712257D01*
X164471653Y-115712257D02*
X164543081Y-115426542D01*
X164543081Y-115426542D02*
X164614510Y-115283685D01*
X164614510Y-115283685D02*
X164685939Y-115212257D01*
X164685939Y-115212257D02*
X164828796Y-115140828D01*
X166043081Y-116640828D02*
X166328795Y-116640828D01*
X166328795Y-116640828D02*
X166471652Y-116569400D01*
X166471652Y-116569400D02*
X166543081Y-116497971D01*
X166543081Y-116497971D02*
X166685938Y-116283685D01*
X166685938Y-116283685D02*
X166757367Y-115997971D01*
X166757367Y-115997971D02*
X166757367Y-115426542D01*
X166757367Y-115426542D02*
X166685938Y-115283685D01*
X166685938Y-115283685D02*
X166614510Y-115212257D01*
X166614510Y-115212257D02*
X166471652Y-115140828D01*
X166471652Y-115140828D02*
X166185938Y-115140828D01*
X166185938Y-115140828D02*
X166043081Y-115212257D01*
X166043081Y-115212257D02*
X165971652Y-115283685D01*
X165971652Y-115283685D02*
X165900224Y-115426542D01*
X165900224Y-115426542D02*
X165900224Y-115783685D01*
X165900224Y-115783685D02*
X165971652Y-115926542D01*
X165971652Y-115926542D02*
X166043081Y-115997971D01*
X166043081Y-115997971D02*
X166185938Y-116069400D01*
X166185938Y-116069400D02*
X166471652Y-116069400D01*
X166471652Y-116069400D02*
X166614510Y-115997971D01*
X166614510Y-115997971D02*
X166685938Y-115926542D01*
X166685938Y-115926542D02*
X166757367Y-115783685D01*
X168114509Y-115140828D02*
X167400223Y-115140828D01*
X167400223Y-115140828D02*
X167328795Y-115855114D01*
X167328795Y-115855114D02*
X167400223Y-115783685D01*
X167400223Y-115783685D02*
X167543081Y-115712257D01*
X167543081Y-115712257D02*
X167900223Y-115712257D01*
X167900223Y-115712257D02*
X168043081Y-115783685D01*
X168043081Y-115783685D02*
X168114509Y-115855114D01*
X168114509Y-115855114D02*
X168185938Y-115997971D01*
X168185938Y-115997971D02*
X168185938Y-116355114D01*
X168185938Y-116355114D02*
X168114509Y-116497971D01*
X168114509Y-116497971D02*
X168043081Y-116569400D01*
X168043081Y-116569400D02*
X167900223Y-116640828D01*
X167900223Y-116640828D02*
X167543081Y-116640828D01*
X167543081Y-116640828D02*
X167400223Y-116569400D01*
X167400223Y-116569400D02*
X167328795Y-116497971D01*
X169614509Y-116640828D02*
X168757366Y-116640828D01*
X169185937Y-116640828D02*
X169185937Y-115140828D01*
X169185937Y-115140828D02*
X169043080Y-115355114D01*
X169043080Y-115355114D02*
X168900223Y-115497971D01*
X168900223Y-115497971D02*
X168757366Y-115569400D01*
X170471651Y-115783685D02*
X170328794Y-115712257D01*
X170328794Y-115712257D02*
X170257365Y-115640828D01*
X170257365Y-115640828D02*
X170185937Y-115497971D01*
X170185937Y-115497971D02*
X170185937Y-115426542D01*
X170185937Y-115426542D02*
X170257365Y-115283685D01*
X170257365Y-115283685D02*
X170328794Y-115212257D01*
X170328794Y-115212257D02*
X170471651Y-115140828D01*
X170471651Y-115140828D02*
X170757365Y-115140828D01*
X170757365Y-115140828D02*
X170900223Y-115212257D01*
X170900223Y-115212257D02*
X170971651Y-115283685D01*
X170971651Y-115283685D02*
X171043080Y-115426542D01*
X171043080Y-115426542D02*
X171043080Y-115497971D01*
X171043080Y-115497971D02*
X170971651Y-115640828D01*
X170971651Y-115640828D02*
X170900223Y-115712257D01*
X170900223Y-115712257D02*
X170757365Y-115783685D01*
X170757365Y-115783685D02*
X170471651Y-115783685D01*
X170471651Y-115783685D02*
X170328794Y-115855114D01*
X170328794Y-115855114D02*
X170257365Y-115926542D01*
X170257365Y-115926542D02*
X170185937Y-116069400D01*
X170185937Y-116069400D02*
X170185937Y-116355114D01*
X170185937Y-116355114D02*
X170257365Y-116497971D01*
X170257365Y-116497971D02*
X170328794Y-116569400D01*
X170328794Y-116569400D02*
X170471651Y-116640828D01*
X170471651Y-116640828D02*
X170757365Y-116640828D01*
X170757365Y-116640828D02*
X170900223Y-116569400D01*
X170900223Y-116569400D02*
X170971651Y-116497971D01*
X170971651Y-116497971D02*
X171043080Y-116355114D01*
X171043080Y-116355114D02*
X171043080Y-116069400D01*
X171043080Y-116069400D02*
X170971651Y-115926542D01*
X170971651Y-115926542D02*
X170900223Y-115855114D01*
X170900223Y-115855114D02*
X170757365Y-115783685D01*
X171757365Y-116640828D02*
X172043079Y-116640828D01*
X172043079Y-116640828D02*
X172185936Y-116569400D01*
X172185936Y-116569400D02*
X172257365Y-116497971D01*
X172257365Y-116497971D02*
X172400222Y-116283685D01*
X172400222Y-116283685D02*
X172471651Y-115997971D01*
X172471651Y-115997971D02*
X172471651Y-115426542D01*
X172471651Y-115426542D02*
X172400222Y-115283685D01*
X172400222Y-115283685D02*
X172328794Y-115212257D01*
X172328794Y-115212257D02*
X172185936Y-115140828D01*
X172185936Y-115140828D02*
X171900222Y-115140828D01*
X171900222Y-115140828D02*
X171757365Y-115212257D01*
X171757365Y-115212257D02*
X171685936Y-115283685D01*
X171685936Y-115283685D02*
X171614508Y-115426542D01*
X171614508Y-115426542D02*
X171614508Y-115783685D01*
X171614508Y-115783685D02*
X171685936Y-115926542D01*
X171685936Y-115926542D02*
X171757365Y-115997971D01*
X171757365Y-115997971D02*
X171900222Y-116069400D01*
X171900222Y-116069400D02*
X172185936Y-116069400D01*
X172185936Y-116069400D02*
X172328794Y-115997971D01*
X172328794Y-115997971D02*
X172400222Y-115926542D01*
X172400222Y-115926542D02*
X172471651Y-115783685D01*
X173757365Y-115640828D02*
X173757365Y-116640828D01*
X173400222Y-115069400D02*
X173043079Y-116140828D01*
X173043079Y-116140828D02*
X173971650Y-116140828D01*
X174828793Y-115140828D02*
X174971650Y-115140828D01*
X174971650Y-115140828D02*
X175114507Y-115212257D01*
X175114507Y-115212257D02*
X175185936Y-115283685D01*
X175185936Y-115283685D02*
X175257364Y-115426542D01*
X175257364Y-115426542D02*
X175328793Y-115712257D01*
X175328793Y-115712257D02*
X175328793Y-116069400D01*
X175328793Y-116069400D02*
X175257364Y-116355114D01*
X175257364Y-116355114D02*
X175185936Y-116497971D01*
X175185936Y-116497971D02*
X175114507Y-116569400D01*
X175114507Y-116569400D02*
X174971650Y-116640828D01*
X174971650Y-116640828D02*
X174828793Y-116640828D01*
X174828793Y-116640828D02*
X174685936Y-116569400D01*
X174685936Y-116569400D02*
X174614507Y-116497971D01*
X174614507Y-116497971D02*
X174543078Y-116355114D01*
X174543078Y-116355114D02*
X174471650Y-116069400D01*
X174471650Y-116069400D02*
X174471650Y-115712257D01*
X174471650Y-115712257D02*
X174543078Y-115426542D01*
X174543078Y-115426542D02*
X174614507Y-115283685D01*
X174614507Y-115283685D02*
X174685936Y-115212257D01*
X174685936Y-115212257D02*
X174828793Y-115140828D01*
X176257364Y-115140828D02*
X176400221Y-115140828D01*
X176400221Y-115140828D02*
X176543078Y-115212257D01*
X176543078Y-115212257D02*
X176614507Y-115283685D01*
X176614507Y-115283685D02*
X176685935Y-115426542D01*
X176685935Y-115426542D02*
X176757364Y-115712257D01*
X176757364Y-115712257D02*
X176757364Y-116069400D01*
X176757364Y-116069400D02*
X176685935Y-116355114D01*
X176685935Y-116355114D02*
X176614507Y-116497971D01*
X176614507Y-116497971D02*
X176543078Y-116569400D01*
X176543078Y-116569400D02*
X176400221Y-116640828D01*
X176400221Y-116640828D02*
X176257364Y-116640828D01*
X176257364Y-116640828D02*
X176114507Y-116569400D01*
X176114507Y-116569400D02*
X176043078Y-116497971D01*
X176043078Y-116497971D02*
X175971649Y-116355114D01*
X175971649Y-116355114D02*
X175900221Y-116069400D01*
X175900221Y-116069400D02*
X175900221Y-115712257D01*
X175900221Y-115712257D02*
X175971649Y-115426542D01*
X175971649Y-115426542D02*
X176043078Y-115283685D01*
X176043078Y-115283685D02*
X176114507Y-115212257D01*
X176114507Y-115212257D02*
X176257364Y-115140828D01*
X177328792Y-115283685D02*
X177400220Y-115212257D01*
X177400220Y-115212257D02*
X177543078Y-115140828D01*
X177543078Y-115140828D02*
X177900220Y-115140828D01*
X177900220Y-115140828D02*
X178043078Y-115212257D01*
X178043078Y-115212257D02*
X178114506Y-115283685D01*
X178114506Y-115283685D02*
X178185935Y-115426542D01*
X178185935Y-115426542D02*
X178185935Y-115569400D01*
X178185935Y-115569400D02*
X178114506Y-115783685D01*
X178114506Y-115783685D02*
X177257363Y-116640828D01*
X177257363Y-116640828D02*
X178185935Y-116640828D01*
D11*
X139219761Y-57939819D02*
X138886428Y-57463628D01*
X138648333Y-57939819D02*
X138648333Y-56939819D01*
X138648333Y-56939819D02*
X139029285Y-56939819D01*
X139029285Y-56939819D02*
X139124523Y-56987438D01*
X139124523Y-56987438D02*
X139172142Y-57035057D01*
X139172142Y-57035057D02*
X139219761Y-57130295D01*
X139219761Y-57130295D02*
X139219761Y-57273152D01*
X139219761Y-57273152D02*
X139172142Y-57368390D01*
X139172142Y-57368390D02*
X139124523Y-57416009D01*
X139124523Y-57416009D02*
X139029285Y-57463628D01*
X139029285Y-57463628D02*
X138648333Y-57463628D01*
X139505476Y-56939819D02*
X139838809Y-57939819D01*
X139838809Y-57939819D02*
X140172142Y-56939819D01*
X140457857Y-57035057D02*
X140505476Y-56987438D01*
X140505476Y-56987438D02*
X140600714Y-56939819D01*
X140600714Y-56939819D02*
X140838809Y-56939819D01*
X140838809Y-56939819D02*
X140934047Y-56987438D01*
X140934047Y-56987438D02*
X140981666Y-57035057D01*
X140981666Y-57035057D02*
X141029285Y-57130295D01*
X141029285Y-57130295D02*
X141029285Y-57225533D01*
X141029285Y-57225533D02*
X140981666Y-57368390D01*
X140981666Y-57368390D02*
X140410238Y-57939819D01*
X140410238Y-57939819D02*
X141029285Y-57939819D01*
X113819761Y-57939819D02*
X113486428Y-57463628D01*
X113248333Y-57939819D02*
X113248333Y-56939819D01*
X113248333Y-56939819D02*
X113629285Y-56939819D01*
X113629285Y-56939819D02*
X113724523Y-56987438D01*
X113724523Y-56987438D02*
X113772142Y-57035057D01*
X113772142Y-57035057D02*
X113819761Y-57130295D01*
X113819761Y-57130295D02*
X113819761Y-57273152D01*
X113819761Y-57273152D02*
X113772142Y-57368390D01*
X113772142Y-57368390D02*
X113724523Y-57416009D01*
X113724523Y-57416009D02*
X113629285Y-57463628D01*
X113629285Y-57463628D02*
X113248333Y-57463628D01*
X114105476Y-56939819D02*
X114438809Y-57939819D01*
X114438809Y-57939819D02*
X114772142Y-56939819D01*
X115629285Y-57939819D02*
X115057857Y-57939819D01*
X115343571Y-57939819D02*
X115343571Y-56939819D01*
X115343571Y-56939819D02*
X115248333Y-57082676D01*
X115248333Y-57082676D02*
X115153095Y-57177914D01*
X115153095Y-57177914D02*
X115057857Y-57225533D01*
X136993333Y-89524819D02*
X136660000Y-89048628D01*
X136421905Y-89524819D02*
X136421905Y-88524819D01*
X136421905Y-88524819D02*
X136802857Y-88524819D01*
X136802857Y-88524819D02*
X136898095Y-88572438D01*
X136898095Y-88572438D02*
X136945714Y-88620057D01*
X136945714Y-88620057D02*
X136993333Y-88715295D01*
X136993333Y-88715295D02*
X136993333Y-88858152D01*
X136993333Y-88858152D02*
X136945714Y-88953390D01*
X136945714Y-88953390D02*
X136898095Y-89001009D01*
X136898095Y-89001009D02*
X136802857Y-89048628D01*
X136802857Y-89048628D02*
X136421905Y-89048628D01*
X137850476Y-88858152D02*
X137850476Y-89524819D01*
X137612381Y-88477200D02*
X137374286Y-89191485D01*
X137374286Y-89191485D02*
X137993333Y-89191485D01*
X136993333Y-72024489D02*
X136660000Y-71548298D01*
X136421905Y-72024489D02*
X136421905Y-71024489D01*
X136421905Y-71024489D02*
X136802857Y-71024489D01*
X136802857Y-71024489D02*
X136898095Y-71072108D01*
X136898095Y-71072108D02*
X136945714Y-71119727D01*
X136945714Y-71119727D02*
X136993333Y-71214965D01*
X136993333Y-71214965D02*
X136993333Y-71357822D01*
X136993333Y-71357822D02*
X136945714Y-71453060D01*
X136945714Y-71453060D02*
X136898095Y-71500679D01*
X136898095Y-71500679D02*
X136802857Y-71548298D01*
X136802857Y-71548298D02*
X136421905Y-71548298D01*
X137326667Y-71024489D02*
X137945714Y-71024489D01*
X137945714Y-71024489D02*
X137612381Y-71405441D01*
X137612381Y-71405441D02*
X137755238Y-71405441D01*
X137755238Y-71405441D02*
X137850476Y-71453060D01*
X137850476Y-71453060D02*
X137898095Y-71500679D01*
X137898095Y-71500679D02*
X137945714Y-71595917D01*
X137945714Y-71595917D02*
X137945714Y-71834012D01*
X137945714Y-71834012D02*
X137898095Y-71929250D01*
X137898095Y-71929250D02*
X137850476Y-71976870D01*
X137850476Y-71976870D02*
X137755238Y-72024489D01*
X137755238Y-72024489D02*
X137469524Y-72024489D01*
X137469524Y-72024489D02*
X137374286Y-71976870D01*
X137374286Y-71976870D02*
X137326667Y-71929250D01*
X119213333Y-71744819D02*
X118880000Y-71268628D01*
X118641905Y-71744819D02*
X118641905Y-70744819D01*
X118641905Y-70744819D02*
X119022857Y-70744819D01*
X119022857Y-70744819D02*
X119118095Y-70792438D01*
X119118095Y-70792438D02*
X119165714Y-70840057D01*
X119165714Y-70840057D02*
X119213333Y-70935295D01*
X119213333Y-70935295D02*
X119213333Y-71078152D01*
X119213333Y-71078152D02*
X119165714Y-71173390D01*
X119165714Y-71173390D02*
X119118095Y-71221009D01*
X119118095Y-71221009D02*
X119022857Y-71268628D01*
X119022857Y-71268628D02*
X118641905Y-71268628D01*
X119594286Y-70840057D02*
X119641905Y-70792438D01*
X119641905Y-70792438D02*
X119737143Y-70744819D01*
X119737143Y-70744819D02*
X119975238Y-70744819D01*
X119975238Y-70744819D02*
X120070476Y-70792438D01*
X120070476Y-70792438D02*
X120118095Y-70840057D01*
X120118095Y-70840057D02*
X120165714Y-70935295D01*
X120165714Y-70935295D02*
X120165714Y-71030533D01*
X120165714Y-71030533D02*
X120118095Y-71173390D01*
X120118095Y-71173390D02*
X119546667Y-71744819D01*
X119546667Y-71744819D02*
X120165714Y-71744819D01*
X119213333Y-89524819D02*
X118880000Y-89048628D01*
X118641905Y-89524819D02*
X118641905Y-88524819D01*
X118641905Y-88524819D02*
X119022857Y-88524819D01*
X119022857Y-88524819D02*
X119118095Y-88572438D01*
X119118095Y-88572438D02*
X119165714Y-88620057D01*
X119165714Y-88620057D02*
X119213333Y-88715295D01*
X119213333Y-88715295D02*
X119213333Y-88858152D01*
X119213333Y-88858152D02*
X119165714Y-88953390D01*
X119165714Y-88953390D02*
X119118095Y-89001009D01*
X119118095Y-89001009D02*
X119022857Y-89048628D01*
X119022857Y-89048628D02*
X118641905Y-89048628D01*
X120165714Y-89524819D02*
X119594286Y-89524819D01*
X119880000Y-89524819D02*
X119880000Y-88524819D01*
X119880000Y-88524819D02*
X119784762Y-88667676D01*
X119784762Y-88667676D02*
X119689524Y-88762914D01*
X119689524Y-88762914D02*
X119594286Y-88810533D01*
X131984761Y-78270057D02*
X131889523Y-78222438D01*
X131889523Y-78222438D02*
X131794285Y-78127200D01*
X131794285Y-78127200D02*
X131651428Y-77984342D01*
X131651428Y-77984342D02*
X131556190Y-77936723D01*
X131556190Y-77936723D02*
X131460952Y-77936723D01*
X131508571Y-78174819D02*
X131413333Y-78127200D01*
X131413333Y-78127200D02*
X131318095Y-78031961D01*
X131318095Y-78031961D02*
X131270476Y-77841485D01*
X131270476Y-77841485D02*
X131270476Y-77508152D01*
X131270476Y-77508152D02*
X131318095Y-77317676D01*
X131318095Y-77317676D02*
X131413333Y-77222438D01*
X131413333Y-77222438D02*
X131508571Y-77174819D01*
X131508571Y-77174819D02*
X131699047Y-77174819D01*
X131699047Y-77174819D02*
X131794285Y-77222438D01*
X131794285Y-77222438D02*
X131889523Y-77317676D01*
X131889523Y-77317676D02*
X131937142Y-77508152D01*
X131937142Y-77508152D02*
X131937142Y-77841485D01*
X131937142Y-77841485D02*
X131889523Y-78031961D01*
X131889523Y-78031961D02*
X131794285Y-78127200D01*
X131794285Y-78127200D02*
X131699047Y-78174819D01*
X131699047Y-78174819D02*
X131508571Y-78174819D01*
X132318095Y-77270057D02*
X132365714Y-77222438D01*
X132365714Y-77222438D02*
X132460952Y-77174819D01*
X132460952Y-77174819D02*
X132699047Y-77174819D01*
X132699047Y-77174819D02*
X132794285Y-77222438D01*
X132794285Y-77222438D02*
X132841904Y-77270057D01*
X132841904Y-77270057D02*
X132889523Y-77365295D01*
X132889523Y-77365295D02*
X132889523Y-77460533D01*
X132889523Y-77460533D02*
X132841904Y-77603390D01*
X132841904Y-77603390D02*
X132270476Y-78174819D01*
X132270476Y-78174819D02*
X132889523Y-78174819D01*
X121824761Y-78270057D02*
X121729523Y-78222438D01*
X121729523Y-78222438D02*
X121634285Y-78127200D01*
X121634285Y-78127200D02*
X121491428Y-77984342D01*
X121491428Y-77984342D02*
X121396190Y-77936723D01*
X121396190Y-77936723D02*
X121300952Y-77936723D01*
X121348571Y-78174819D02*
X121253333Y-78127200D01*
X121253333Y-78127200D02*
X121158095Y-78031961D01*
X121158095Y-78031961D02*
X121110476Y-77841485D01*
X121110476Y-77841485D02*
X121110476Y-77508152D01*
X121110476Y-77508152D02*
X121158095Y-77317676D01*
X121158095Y-77317676D02*
X121253333Y-77222438D01*
X121253333Y-77222438D02*
X121348571Y-77174819D01*
X121348571Y-77174819D02*
X121539047Y-77174819D01*
X121539047Y-77174819D02*
X121634285Y-77222438D01*
X121634285Y-77222438D02*
X121729523Y-77317676D01*
X121729523Y-77317676D02*
X121777142Y-77508152D01*
X121777142Y-77508152D02*
X121777142Y-77841485D01*
X121777142Y-77841485D02*
X121729523Y-78031961D01*
X121729523Y-78031961D02*
X121634285Y-78127200D01*
X121634285Y-78127200D02*
X121539047Y-78174819D01*
X121539047Y-78174819D02*
X121348571Y-78174819D01*
X122729523Y-78174819D02*
X122158095Y-78174819D01*
X122443809Y-78174819D02*
X122443809Y-77174819D01*
X122443809Y-77174819D02*
X122348571Y-77317676D01*
X122348571Y-77317676D02*
X122253333Y-77412914D01*
X122253333Y-77412914D02*
X122158095Y-77460533D01*
X133693426Y-57954463D02*
X133693426Y-58668748D01*
X133693426Y-58668748D02*
X133645807Y-58811605D01*
X133645807Y-58811605D02*
X133550569Y-58906844D01*
X133550569Y-58906844D02*
X133407712Y-58954463D01*
X133407712Y-58954463D02*
X133312474Y-58954463D01*
X134121998Y-58049701D02*
X134169617Y-58002082D01*
X134169617Y-58002082D02*
X134264855Y-57954463D01*
X134264855Y-57954463D02*
X134502950Y-57954463D01*
X134502950Y-57954463D02*
X134598188Y-58002082D01*
X134598188Y-58002082D02*
X134645807Y-58049701D01*
X134645807Y-58049701D02*
X134693426Y-58144939D01*
X134693426Y-58144939D02*
X134693426Y-58240177D01*
X134693426Y-58240177D02*
X134645807Y-58383034D01*
X134645807Y-58383034D02*
X134074379Y-58954463D01*
X134074379Y-58954463D02*
X134693426Y-58954463D01*
X132611905Y-95554819D02*
X132611905Y-94554819D01*
X132611905Y-94554819D02*
X132850000Y-94554819D01*
X132850000Y-94554819D02*
X132992857Y-94602438D01*
X132992857Y-94602438D02*
X133088095Y-94697676D01*
X133088095Y-94697676D02*
X133135714Y-94792914D01*
X133135714Y-94792914D02*
X133183333Y-94983390D01*
X133183333Y-94983390D02*
X133183333Y-95126247D01*
X133183333Y-95126247D02*
X133135714Y-95316723D01*
X133135714Y-95316723D02*
X133088095Y-95411961D01*
X133088095Y-95411961D02*
X132992857Y-95507200D01*
X132992857Y-95507200D02*
X132850000Y-95554819D01*
X132850000Y-95554819D02*
X132611905Y-95554819D01*
X133564286Y-94650057D02*
X133611905Y-94602438D01*
X133611905Y-94602438D02*
X133707143Y-94554819D01*
X133707143Y-94554819D02*
X133945238Y-94554819D01*
X133945238Y-94554819D02*
X134040476Y-94602438D01*
X134040476Y-94602438D02*
X134088095Y-94650057D01*
X134088095Y-94650057D02*
X134135714Y-94745295D01*
X134135714Y-94745295D02*
X134135714Y-94840533D01*
X134135714Y-94840533D02*
X134088095Y-94983390D01*
X134088095Y-94983390D02*
X133516667Y-95554819D01*
X133516667Y-95554819D02*
X134135714Y-95554819D01*
X119911905Y-95554819D02*
X119911905Y-94554819D01*
X119911905Y-94554819D02*
X120150000Y-94554819D01*
X120150000Y-94554819D02*
X120292857Y-94602438D01*
X120292857Y-94602438D02*
X120388095Y-94697676D01*
X120388095Y-94697676D02*
X120435714Y-94792914D01*
X120435714Y-94792914D02*
X120483333Y-94983390D01*
X120483333Y-94983390D02*
X120483333Y-95126247D01*
X120483333Y-95126247D02*
X120435714Y-95316723D01*
X120435714Y-95316723D02*
X120388095Y-95411961D01*
X120388095Y-95411961D02*
X120292857Y-95507200D01*
X120292857Y-95507200D02*
X120150000Y-95554819D01*
X120150000Y-95554819D02*
X119911905Y-95554819D01*
X121435714Y-95554819D02*
X120864286Y-95554819D01*
X121150000Y-95554819D02*
X121150000Y-94554819D01*
X121150000Y-94554819D02*
X121054762Y-94697676D01*
X121054762Y-94697676D02*
X120959524Y-94792914D01*
X120959524Y-94792914D02*
X120864286Y-94840533D01*
X140823333Y-79779580D02*
X140775714Y-79827200D01*
X140775714Y-79827200D02*
X140632857Y-79874819D01*
X140632857Y-79874819D02*
X140537619Y-79874819D01*
X140537619Y-79874819D02*
X140394762Y-79827200D01*
X140394762Y-79827200D02*
X140299524Y-79731961D01*
X140299524Y-79731961D02*
X140251905Y-79636723D01*
X140251905Y-79636723D02*
X140204286Y-79446247D01*
X140204286Y-79446247D02*
X140204286Y-79303390D01*
X140204286Y-79303390D02*
X140251905Y-79112914D01*
X140251905Y-79112914D02*
X140299524Y-79017676D01*
X140299524Y-79017676D02*
X140394762Y-78922438D01*
X140394762Y-78922438D02*
X140537619Y-78874819D01*
X140537619Y-78874819D02*
X140632857Y-78874819D01*
X140632857Y-78874819D02*
X140775714Y-78922438D01*
X140775714Y-78922438D02*
X140823333Y-78970057D01*
X141204286Y-78970057D02*
X141251905Y-78922438D01*
X141251905Y-78922438D02*
X141347143Y-78874819D01*
X141347143Y-78874819D02*
X141585238Y-78874819D01*
X141585238Y-78874819D02*
X141680476Y-78922438D01*
X141680476Y-78922438D02*
X141728095Y-78970057D01*
X141728095Y-78970057D02*
X141775714Y-79065295D01*
X141775714Y-79065295D02*
X141775714Y-79160533D01*
X141775714Y-79160533D02*
X141728095Y-79303390D01*
X141728095Y-79303390D02*
X141156667Y-79874819D01*
X141156667Y-79874819D02*
X141775714Y-79874819D01*
X112843333Y-79779580D02*
X112795714Y-79827200D01*
X112795714Y-79827200D02*
X112652857Y-79874819D01*
X112652857Y-79874819D02*
X112557619Y-79874819D01*
X112557619Y-79874819D02*
X112414762Y-79827200D01*
X112414762Y-79827200D02*
X112319524Y-79731961D01*
X112319524Y-79731961D02*
X112271905Y-79636723D01*
X112271905Y-79636723D02*
X112224286Y-79446247D01*
X112224286Y-79446247D02*
X112224286Y-79303390D01*
X112224286Y-79303390D02*
X112271905Y-79112914D01*
X112271905Y-79112914D02*
X112319524Y-79017676D01*
X112319524Y-79017676D02*
X112414762Y-78922438D01*
X112414762Y-78922438D02*
X112557619Y-78874819D01*
X112557619Y-78874819D02*
X112652857Y-78874819D01*
X112652857Y-78874819D02*
X112795714Y-78922438D01*
X112795714Y-78922438D02*
X112843333Y-78970057D01*
X113795714Y-79874819D02*
X113224286Y-79874819D01*
X113510000Y-79874819D02*
X113510000Y-78874819D01*
X113510000Y-78874819D02*
X113414762Y-79017676D01*
X113414762Y-79017676D02*
X113319524Y-79112914D01*
X113319524Y-79112914D02*
X113224286Y-79160533D01*
D12*
%TO.C,RV2*%
X134930000Y-68385000D02*
X144700000Y-68385000D01*
X134930000Y-58615000D02*
X134930000Y-68385000D01*
X144700000Y-58615000D02*
X144700000Y-68385000D01*
X134930000Y-58615000D02*
X144700000Y-58615000D01*
%TO.C,RV1*%
X109530000Y-58615000D02*
X119300000Y-58615000D01*
X119300000Y-58615000D02*
X119300000Y-68385000D01*
X109530000Y-58615000D02*
X109530000Y-68385000D01*
X109530000Y-68385000D02*
X119300000Y-68385000D01*
%TO.C,R4*%
X141200000Y-91440000D02*
X140430000Y-91440000D01*
X133120000Y-91440000D02*
X133890000Y-91440000D01*
X133890000Y-90070000D02*
X133890000Y-92810000D01*
X140430000Y-92810000D02*
X140430000Y-90070000D01*
X133890000Y-92810000D02*
X140430000Y-92810000D01*
X140430000Y-90070000D02*
X133890000Y-90070000D01*
%TO.C,R3*%
X141200000Y-73939670D02*
X140430000Y-73939670D01*
X133120000Y-73939670D02*
X133890000Y-73939670D01*
X133890000Y-72569670D02*
X133890000Y-75309670D01*
X140430000Y-75309670D02*
X140430000Y-72569670D01*
X133890000Y-75309670D02*
X140430000Y-75309670D01*
X140430000Y-72569670D02*
X133890000Y-72569670D01*
%TO.C,R2*%
X122650000Y-72290000D02*
X116110000Y-72290000D01*
X116110000Y-75030000D02*
X122650000Y-75030000D01*
X122650000Y-75030000D02*
X122650000Y-72290000D01*
X116110000Y-72290000D02*
X116110000Y-75030000D01*
X115340000Y-73660000D02*
X116110000Y-73660000D01*
X123420000Y-73660000D02*
X122650000Y-73660000D01*
%TO.C,R1*%
X123420000Y-91440000D02*
X122650000Y-91440000D01*
X115340000Y-91440000D02*
X116110000Y-91440000D01*
X116110000Y-90070000D02*
X116110000Y-92810000D01*
X122650000Y-92810000D02*
X122650000Y-90070000D01*
X116110000Y-92810000D02*
X122650000Y-92810000D01*
X122650000Y-90070000D02*
X116110000Y-90070000D01*
%TO.C,Q2*%
X130140000Y-82980000D02*
X133990000Y-82980000D01*
X129757369Y-82402045D02*
G75*
G03*
X130140000Y-82980000I2322631J1122045D01*
G01*
X134436400Y-80181193D02*
G75*
G03*
X132080000Y-78680000I-2356400J-1098807D01*
G01*
X133989999Y-82979999D02*
G75*
G03*
X134382382Y-82392264I-1909999J1699999D01*
G01*
X132080000Y-78680001D02*
G75*
G03*
X129723601Y-80181193I0J-2599999D01*
G01*
%TO.C,Q1*%
X119980000Y-82980000D02*
X123830000Y-82980000D01*
X119597369Y-82402045D02*
G75*
G03*
X119980000Y-82980000I2322631J1122045D01*
G01*
X124276400Y-80181193D02*
G75*
G03*
X121920000Y-78680000I-2356400J-1098807D01*
G01*
X123829999Y-82979999D02*
G75*
G03*
X124222382Y-82392264I-1909999J1699999D01*
G01*
X121920000Y-78680001D02*
G75*
G03*
X119563601Y-80181193I0J-2599999D01*
G01*
%TO.C,J2*%
X121920000Y-54610000D02*
X121920000Y-62230000D01*
X132080000Y-62230000D02*
X132080000Y-54610000D01*
X132080000Y-60960000D02*
X121920000Y-60960000D01*
X121920000Y-62230000D02*
X132080000Y-62230000D01*
X132080000Y-54610000D02*
X121920000Y-54610000D01*
%TO.C,D2*%
X130790000Y-97515000D02*
X130790000Y-100605000D01*
X130790000Y-100604830D02*
G75*
G03*
X136340000Y-99059538I2560000J1544830D01*
G01*
X136339999Y-99060462D02*
G75*
G03*
X130790001Y-97515170I-2989999J462D01*
G01*
X135850000Y-99060000D02*
G75*
G03*
X130850000Y-99060000I-2500000J0D01*
G01*
X130850000Y-99060000D02*
G75*
G03*
X135850000Y-99060000I2500000J0D01*
G01*
%TO.C,D1*%
X123150000Y-99060000D02*
G75*
G03*
X118150000Y-99060000I-2500000J0D01*
G01*
X118150000Y-99060000D02*
G75*
G03*
X123150000Y-99060000I2500000J0D01*
G01*
X123639999Y-99060462D02*
G75*
G03*
X118090001Y-97515170I-2989999J462D01*
G01*
X118090000Y-100604830D02*
G75*
G03*
X123640000Y-99059538I2560000J1544830D01*
G01*
X118090000Y-97515000D02*
X118090000Y-100605000D01*
%TO.C,C2*%
X144260000Y-83820000D02*
G75*
G03*
X137720000Y-83820000I-3270000J0D01*
G01*
X137720000Y-83820000D02*
G75*
G03*
X144260000Y-83820000I3270000J0D01*
G01*
X141190000Y-80596000D02*
X141190000Y-87044000D01*
X142751000Y-81104000D02*
X142751000Y-82780000D01*
X143111000Y-84860000D02*
X143111000Y-86270000D01*
X141670000Y-84860000D02*
X141670000Y-86979000D01*
X142391000Y-80904000D02*
X142391000Y-82780000D01*
X141470000Y-80625000D02*
X141470000Y-82780000D01*
X142191000Y-84860000D02*
X142191000Y-86822000D01*
X142191000Y-80818000D02*
X142191000Y-82780000D01*
X141350000Y-80609000D02*
X141350000Y-82780000D01*
X142031000Y-80759000D02*
X142031000Y-82780000D01*
X141991000Y-80746000D02*
X141991000Y-82780000D01*
X142231000Y-80834000D02*
X142231000Y-82780000D01*
X143031000Y-81304000D02*
X143031000Y-82780000D01*
X141390000Y-80614000D02*
X141390000Y-82780000D01*
X142831000Y-84860000D02*
X142831000Y-86484000D01*
X142471000Y-80944000D02*
X142471000Y-82780000D01*
X141350000Y-84860000D02*
X141350000Y-87031000D01*
X142991000Y-81272000D02*
X142991000Y-82780000D01*
X142791000Y-84860000D02*
X142791000Y-86510000D01*
X143071000Y-84860000D02*
X143071000Y-86304000D01*
X141150000Y-80593000D02*
X141150000Y-87047000D01*
X142351000Y-84860000D02*
X142351000Y-86754000D01*
X141630000Y-80653000D02*
X141630000Y-82780000D01*
X142711000Y-81078000D02*
X142711000Y-82780000D01*
X143191000Y-84860000D02*
X143191000Y-86200000D01*
X141390000Y-84860000D02*
X141390000Y-87026000D01*
X143991000Y-82558000D02*
X143991000Y-85082000D01*
X143591000Y-81876000D02*
X143591000Y-85764000D01*
X143391000Y-81638000D02*
X143391000Y-86002000D01*
X142071000Y-84860000D02*
X142071000Y-86867000D01*
X143031000Y-84860000D02*
X143031000Y-86336000D01*
X142871000Y-81184000D02*
X142871000Y-82780000D01*
X144031000Y-82655000D02*
X144031000Y-84985000D01*
X141911000Y-84860000D02*
X141911000Y-86918000D01*
X141951000Y-80734000D02*
X141951000Y-82780000D01*
X141230000Y-84860000D02*
X141230000Y-87042000D01*
X142951000Y-81242000D02*
X142951000Y-82780000D01*
X142431000Y-84860000D02*
X142431000Y-86716000D01*
X143311000Y-81555000D02*
X143311000Y-86085000D01*
X143111000Y-81370000D02*
X143111000Y-82780000D01*
X141270000Y-80602000D02*
X141270000Y-82780000D01*
X141751000Y-80679000D02*
X141751000Y-82780000D01*
X142111000Y-84860000D02*
X142111000Y-86853000D01*
X141831000Y-80699000D02*
X141831000Y-82780000D01*
X142671000Y-81054000D02*
X142671000Y-82780000D01*
X141831000Y-84860000D02*
X141831000Y-86941000D01*
X140990000Y-80590000D02*
X140990000Y-87050000D01*
X141911000Y-80722000D02*
X141911000Y-82780000D01*
X141670000Y-80661000D02*
X141670000Y-82780000D01*
X141510000Y-80631000D02*
X141510000Y-82780000D01*
X142031000Y-84860000D02*
X142031000Y-86881000D01*
X142431000Y-80924000D02*
X142431000Y-82780000D01*
X141430000Y-84860000D02*
X141430000Y-87021000D01*
X144111000Y-82880000D02*
X144111000Y-84760000D01*
X144071000Y-82761000D02*
X144071000Y-84879000D01*
X141590000Y-80645000D02*
X141590000Y-82780000D01*
X143831000Y-82239000D02*
X143831000Y-85401000D01*
X143191000Y-81440000D02*
X143191000Y-82780000D01*
X143751000Y-82106000D02*
X143751000Y-85534000D01*
X142551000Y-84860000D02*
X142551000Y-86654000D01*
X137804759Y-81666000D02*
X137804759Y-82296000D01*
X141711000Y-84860000D02*
X141711000Y-86970000D01*
X142111000Y-80787000D02*
X142111000Y-82780000D01*
X143151000Y-84860000D02*
X143151000Y-86236000D01*
X142911000Y-84860000D02*
X142911000Y-86427000D01*
X141871000Y-80710000D02*
X141871000Y-82780000D01*
X141470000Y-84860000D02*
X141470000Y-87015000D01*
X142511000Y-84860000D02*
X142511000Y-86676000D01*
X142151000Y-80802000D02*
X142151000Y-82780000D01*
X143231000Y-84860000D02*
X143231000Y-86163000D01*
X142351000Y-80886000D02*
X142351000Y-82780000D01*
X141711000Y-80670000D02*
X141711000Y-82780000D01*
X143951000Y-82470000D02*
X143951000Y-85170000D01*
X141951000Y-84860000D02*
X141951000Y-86906000D01*
X143231000Y-81477000D02*
X143231000Y-82780000D01*
X142311000Y-84860000D02*
X142311000Y-86772000D01*
X143471000Y-81728000D02*
X143471000Y-85912000D01*
X143511000Y-81776000D02*
X143511000Y-85864000D01*
X142391000Y-84860000D02*
X142391000Y-86736000D01*
X142271000Y-84860000D02*
X142271000Y-86790000D01*
X141751000Y-84860000D02*
X141751000Y-86961000D01*
X142911000Y-81213000D02*
X142911000Y-82780000D01*
X143431000Y-81683000D02*
X143431000Y-85957000D01*
X142671000Y-84860000D02*
X142671000Y-86586000D01*
X142311000Y-80868000D02*
X142311000Y-82780000D01*
X142631000Y-81030000D02*
X142631000Y-82780000D01*
X141310000Y-80605000D02*
X141310000Y-82780000D01*
X142271000Y-80850000D02*
X142271000Y-82780000D01*
X141310000Y-84860000D02*
X141310000Y-87035000D01*
X142951000Y-84860000D02*
X142951000Y-86398000D01*
X143271000Y-84860000D02*
X143271000Y-86125000D01*
X144191000Y-83187000D02*
X144191000Y-84453000D01*
X142871000Y-84860000D02*
X142871000Y-86456000D01*
X143711000Y-82044000D02*
X143711000Y-85596000D01*
X142791000Y-81130000D02*
X142791000Y-82780000D01*
X143151000Y-81404000D02*
X143151000Y-82780000D01*
X141230000Y-80598000D02*
X141230000Y-82780000D01*
X141791000Y-84860000D02*
X141791000Y-86951000D01*
X142551000Y-80986000D02*
X142551000Y-82780000D01*
X141430000Y-80619000D02*
X141430000Y-82780000D01*
X143911000Y-82388000D02*
X143911000Y-85252000D01*
X142831000Y-81156000D02*
X142831000Y-82780000D01*
X141270000Y-84860000D02*
X141270000Y-87038000D01*
X141590000Y-84860000D02*
X141590000Y-86995000D01*
X143791000Y-82170000D02*
X143791000Y-85470000D01*
X143071000Y-81336000D02*
X143071000Y-82780000D01*
X142151000Y-84860000D02*
X142151000Y-86838000D01*
X143351000Y-81596000D02*
X143351000Y-86044000D01*
X143871000Y-82311000D02*
X143871000Y-85329000D01*
X141510000Y-84860000D02*
X141510000Y-87009000D01*
X142751000Y-84860000D02*
X142751000Y-86536000D01*
X142591000Y-81008000D02*
X142591000Y-82780000D01*
X142231000Y-84860000D02*
X142231000Y-86806000D01*
X141630000Y-84860000D02*
X141630000Y-86987000D01*
X144231000Y-83418000D02*
X144231000Y-84222000D01*
X142711000Y-84860000D02*
X142711000Y-86562000D01*
X137489759Y-81981000D02*
X138119759Y-81981000D01*
X142631000Y-84860000D02*
X142631000Y-86610000D01*
X141110000Y-80592000D02*
X141110000Y-87048000D01*
X144151000Y-83018000D02*
X144151000Y-84622000D01*
X141550000Y-80638000D02*
X141550000Y-82780000D01*
X143271000Y-81515000D02*
X143271000Y-82780000D01*
X142511000Y-80964000D02*
X142511000Y-82780000D01*
X142591000Y-84860000D02*
X142591000Y-86632000D01*
X141550000Y-84860000D02*
X141550000Y-87002000D01*
X143551000Y-81825000D02*
X143551000Y-85815000D01*
X143671000Y-81986000D02*
X143671000Y-85654000D01*
X141030000Y-80590000D02*
X141030000Y-87050000D01*
X141991000Y-84860000D02*
X141991000Y-86894000D01*
X141871000Y-84860000D02*
X141871000Y-86930000D01*
X141070000Y-80590000D02*
X141070000Y-87050000D01*
X141791000Y-80689000D02*
X141791000Y-82780000D01*
X143631000Y-81930000D02*
X143631000Y-85710000D01*
X142071000Y-80773000D02*
X142071000Y-82780000D01*
X142471000Y-84860000D02*
X142471000Y-86696000D01*
X142991000Y-84860000D02*
X142991000Y-86368000D01*
%TO.C,C1*%
X116280000Y-83820000D02*
G75*
G03*
X109740000Y-83820000I-3270000J0D01*
G01*
X109740000Y-83820000D02*
G75*
G03*
X116280000Y-83820000I3270000J0D01*
G01*
X113210000Y-80596000D02*
X113210000Y-87044000D01*
X114771000Y-81104000D02*
X114771000Y-82780000D01*
X115131000Y-84860000D02*
X115131000Y-86270000D01*
X113690000Y-84860000D02*
X113690000Y-86979000D01*
X114411000Y-80904000D02*
X114411000Y-82780000D01*
X113490000Y-80625000D02*
X113490000Y-82780000D01*
X114211000Y-84860000D02*
X114211000Y-86822000D01*
X114211000Y-80818000D02*
X114211000Y-82780000D01*
X113370000Y-80609000D02*
X113370000Y-82780000D01*
X114051000Y-80759000D02*
X114051000Y-82780000D01*
X114011000Y-80746000D02*
X114011000Y-82780000D01*
X114251000Y-80834000D02*
X114251000Y-82780000D01*
X115051000Y-81304000D02*
X115051000Y-82780000D01*
X113410000Y-80614000D02*
X113410000Y-82780000D01*
X114851000Y-84860000D02*
X114851000Y-86484000D01*
X114491000Y-80944000D02*
X114491000Y-82780000D01*
X113370000Y-84860000D02*
X113370000Y-87031000D01*
X115011000Y-81272000D02*
X115011000Y-82780000D01*
X114811000Y-84860000D02*
X114811000Y-86510000D01*
X115091000Y-84860000D02*
X115091000Y-86304000D01*
X113170000Y-80593000D02*
X113170000Y-87047000D01*
X114371000Y-84860000D02*
X114371000Y-86754000D01*
X113650000Y-80653000D02*
X113650000Y-82780000D01*
X114731000Y-81078000D02*
X114731000Y-82780000D01*
X115211000Y-84860000D02*
X115211000Y-86200000D01*
X113410000Y-84860000D02*
X113410000Y-87026000D01*
X116011000Y-82558000D02*
X116011000Y-85082000D01*
X115611000Y-81876000D02*
X115611000Y-85764000D01*
X115411000Y-81638000D02*
X115411000Y-86002000D01*
X114091000Y-84860000D02*
X114091000Y-86867000D01*
X115051000Y-84860000D02*
X115051000Y-86336000D01*
X114891000Y-81184000D02*
X114891000Y-82780000D01*
X116051000Y-82655000D02*
X116051000Y-84985000D01*
X113931000Y-84860000D02*
X113931000Y-86918000D01*
X113971000Y-80734000D02*
X113971000Y-82780000D01*
X113250000Y-84860000D02*
X113250000Y-87042000D01*
X114971000Y-81242000D02*
X114971000Y-82780000D01*
X114451000Y-84860000D02*
X114451000Y-86716000D01*
X115331000Y-81555000D02*
X115331000Y-86085000D01*
X115131000Y-81370000D02*
X115131000Y-82780000D01*
X113290000Y-80602000D02*
X113290000Y-82780000D01*
X113771000Y-80679000D02*
X113771000Y-82780000D01*
X114131000Y-84860000D02*
X114131000Y-86853000D01*
X113851000Y-80699000D02*
X113851000Y-82780000D01*
X114691000Y-81054000D02*
X114691000Y-82780000D01*
X113851000Y-84860000D02*
X113851000Y-86941000D01*
X113010000Y-80590000D02*
X113010000Y-87050000D01*
X113931000Y-80722000D02*
X113931000Y-82780000D01*
X113690000Y-80661000D02*
X113690000Y-82780000D01*
X113530000Y-80631000D02*
X113530000Y-82780000D01*
X114051000Y-84860000D02*
X114051000Y-86881000D01*
X114451000Y-80924000D02*
X114451000Y-82780000D01*
X113450000Y-84860000D02*
X113450000Y-87021000D01*
X116131000Y-82880000D02*
X116131000Y-84760000D01*
X116091000Y-82761000D02*
X116091000Y-84879000D01*
X113610000Y-80645000D02*
X113610000Y-82780000D01*
X115851000Y-82239000D02*
X115851000Y-85401000D01*
X115211000Y-81440000D02*
X115211000Y-82780000D01*
X115771000Y-82106000D02*
X115771000Y-85534000D01*
X114571000Y-84860000D02*
X114571000Y-86654000D01*
X109824759Y-81666000D02*
X109824759Y-82296000D01*
X113731000Y-84860000D02*
X113731000Y-86970000D01*
X114131000Y-80787000D02*
X114131000Y-82780000D01*
X115171000Y-84860000D02*
X115171000Y-86236000D01*
X114931000Y-84860000D02*
X114931000Y-86427000D01*
X113891000Y-80710000D02*
X113891000Y-82780000D01*
X113490000Y-84860000D02*
X113490000Y-87015000D01*
X114531000Y-84860000D02*
X114531000Y-86676000D01*
X114171000Y-80802000D02*
X114171000Y-82780000D01*
X115251000Y-84860000D02*
X115251000Y-86163000D01*
X114371000Y-80886000D02*
X114371000Y-82780000D01*
X113731000Y-80670000D02*
X113731000Y-82780000D01*
X115971000Y-82470000D02*
X115971000Y-85170000D01*
X113971000Y-84860000D02*
X113971000Y-86906000D01*
X115251000Y-81477000D02*
X115251000Y-82780000D01*
X114331000Y-84860000D02*
X114331000Y-86772000D01*
X115491000Y-81728000D02*
X115491000Y-85912000D01*
X115531000Y-81776000D02*
X115531000Y-85864000D01*
X114411000Y-84860000D02*
X114411000Y-86736000D01*
X114291000Y-84860000D02*
X114291000Y-86790000D01*
X113771000Y-84860000D02*
X113771000Y-86961000D01*
X114931000Y-81213000D02*
X114931000Y-82780000D01*
X115451000Y-81683000D02*
X115451000Y-85957000D01*
X114691000Y-84860000D02*
X114691000Y-86586000D01*
X114331000Y-80868000D02*
X114331000Y-82780000D01*
X114651000Y-81030000D02*
X114651000Y-82780000D01*
X113330000Y-80605000D02*
X113330000Y-82780000D01*
X114291000Y-80850000D02*
X114291000Y-82780000D01*
X113330000Y-84860000D02*
X113330000Y-87035000D01*
X114971000Y-84860000D02*
X114971000Y-86398000D01*
X115291000Y-84860000D02*
X115291000Y-86125000D01*
X116211000Y-83187000D02*
X116211000Y-84453000D01*
X114891000Y-84860000D02*
X114891000Y-86456000D01*
X115731000Y-82044000D02*
X115731000Y-85596000D01*
X114811000Y-81130000D02*
X114811000Y-82780000D01*
X115171000Y-81404000D02*
X115171000Y-82780000D01*
X113250000Y-80598000D02*
X113250000Y-82780000D01*
X113811000Y-84860000D02*
X113811000Y-86951000D01*
X114571000Y-80986000D02*
X114571000Y-82780000D01*
X113450000Y-80619000D02*
X113450000Y-82780000D01*
X115931000Y-82388000D02*
X115931000Y-85252000D01*
X114851000Y-81156000D02*
X114851000Y-82780000D01*
X113290000Y-84860000D02*
X113290000Y-87038000D01*
X113610000Y-84860000D02*
X113610000Y-86995000D01*
X115811000Y-82170000D02*
X115811000Y-85470000D01*
X115091000Y-81336000D02*
X115091000Y-82780000D01*
X114171000Y-84860000D02*
X114171000Y-86838000D01*
X115371000Y-81596000D02*
X115371000Y-86044000D01*
X115891000Y-82311000D02*
X115891000Y-85329000D01*
X113530000Y-84860000D02*
X113530000Y-87009000D01*
X114771000Y-84860000D02*
X114771000Y-86536000D01*
X114611000Y-81008000D02*
X114611000Y-82780000D01*
X114251000Y-84860000D02*
X114251000Y-86806000D01*
X113650000Y-84860000D02*
X113650000Y-86987000D01*
X116251000Y-83418000D02*
X116251000Y-84222000D01*
X114731000Y-84860000D02*
X114731000Y-86562000D01*
X109509759Y-81981000D02*
X110139759Y-81981000D01*
X114651000Y-84860000D02*
X114651000Y-86610000D01*
X113130000Y-80592000D02*
X113130000Y-87048000D01*
X116171000Y-83018000D02*
X116171000Y-84622000D01*
X113570000Y-80638000D02*
X113570000Y-82780000D01*
X115291000Y-81515000D02*
X115291000Y-82780000D01*
X114531000Y-80964000D02*
X114531000Y-82780000D01*
X114611000Y-84860000D02*
X114611000Y-86632000D01*
X113570000Y-84860000D02*
X113570000Y-87002000D01*
X115571000Y-81825000D02*
X115571000Y-85815000D01*
X115691000Y-81986000D02*
X115691000Y-85654000D01*
X113050000Y-80590000D02*
X113050000Y-87050000D01*
X114011000Y-84860000D02*
X114011000Y-86894000D01*
X113891000Y-84860000D02*
X113891000Y-86930000D01*
X113090000Y-80590000D02*
X113090000Y-87050000D01*
X113811000Y-80689000D02*
X113811000Y-82780000D01*
X115651000Y-81930000D02*
X115651000Y-85710000D01*
X114091000Y-80773000D02*
X114091000Y-82780000D01*
X114491000Y-84860000D02*
X114491000Y-86696000D01*
X115011000Y-84860000D02*
X115011000Y-86368000D01*
%TD*%
M02*
